<svg width="215" height="64" viewBox="0 0 215 64" fill="none" xmlns="http://www.w3.org/2000/svg">
<g clip-path="url(#clip0_1_44)" filter="url(#filter0_d_1_44)">
<path d="M141.726 0V40.5118C146.723 40.7442 151.707 41.0252 156.677 41.3567V49.946C148.794 49.4204 140.904 49.0216 133.009 48.7497V0H141.726ZM210.999 0.00485156L199.648 26.3222L210.997 55.6086L210.984 55.6139C207.675 55.1431 204.363 54.6953 201.048 54.2704L194.675 37.8333L188.242 52.7446C185.192 52.4078 182.139 52.0896 179.079 51.7904L190.145 26.1459L180.011 0.00525586H189.441L195.115 14.6343L201.425 0.00485156H210.999ZM103.09 48.324V0.00444727H127.424V8.67096H111.807V19.9023H123.624V28.4916H111.807V48.3224L103.09 48.324ZM70.5386 8.67136V0.00404297H97.5011V8.67096H88.3782V48.5589C85.4685 48.6357 82.562 48.7255 79.6615 48.835V8.67136H70.5386ZM40.7371 51.332V0.00566016H64.9504V8.67176H49.4533V20.4109C53.0135 20.3652 58.0757 20.3139 61.2252 20.3212V28.9113C57.2829 28.8628 52.8328 28.9654 49.4533 28.999V42.0028C54.6152 41.596 59.7812 41.2429 64.9504 40.9436V49.5336C56.8699 49.9998 48.7977 50.5996 40.7371 51.3328V51.332ZM23.6365 31.4761L23.6361 0.00404297H32.3536V52.1422C29.1669 52.4697 25.9859 52.8186 22.8109 53.1869L12.716 24.1867V54.4289C9.8047 54.8081 6.89902 55.2031 3.999 55.6159V0.00485156H12.2834L23.6361 31.4761H23.6365ZM163.868 50.4639V0.00485156H172.586V51.184C169.684 50.9252 166.779 50.6867 163.868 50.4643V50.4639Z" fill="#DB202C"/>
</g>
<defs>
<filter id="filter0_d_1_44" x="0" y="0" width="215" height="63.793" filterUnits="userSpaceOnUse" color-interpolation-filters="sRGB">
<feFlood flood-opacity="0" result="BackgroundImageFix"/>
<feColorMatrix in="SourceAlpha" type="matrix" values="0 0 0 0 0 0 0 0 0 0 0 0 0 0 0 0 0 0 127 0" result="hardAlpha"/>
<feOffset dy="4"/>
<feGaussianBlur stdDeviation="2"/>
<feComposite in2="hardAlpha" operator="out"/>
<feColorMatrix type="matrix" values="0 0 0 0 0 0 0 0 0 0 0 0 0 0 0 0 0 0 0.25 0"/>
<feBlend mode="normal" in2="BackgroundImageFix" result="effect1_dropShadow_1_44"/>
<feBlend mode="normal" in="SourceGraphic" in2="effect1_dropShadow_1_44" result="shape"/>
</filter>
<clipPath id="clip0_1_44">
<rect width="207" height="55.793" fill="white" transform="translate(4)"/>
</clipPath>
</defs>
</svg>
